<svg xmlns="http://www.w3.org/2000/svg" viewBox="0 0 1800 1000" role="img" aria-label="Fondo azul de agua cayendo">
  <defs>
    <linearGradient id="base" x1="0" y1="0" x2="1" y2="1">
      <stop offset="0" stop-color="#26568e"/>
      <stop offset="0.38" stop-color="#2b6f9e"/>
      <stop offset="0.72" stop-color="#369da2"/>
      <stop offset="1" stop-color="#72cddd"/>
    </linearGradient>
    <linearGradient id="fallA" x1="0" y1="0" x2="0" y2="1">
      <stop offset="0" stop-color="#ffffff" stop-opacity=".78"/>
      <stop offset=".2" stop-color="#dcf9ff" stop-opacity=".58"/>
      <stop offset=".56" stop-color="#8bdbea" stop-opacity=".48"/>
      <stop offset="1" stop-color="#369da2" stop-opacity=".28"/>
    </linearGradient>
    <linearGradient id="fallB" x1="0" y1="0" x2="1" y2="0">
      <stop offset="0" stop-color="#ffffff" stop-opacity=".08"/>
      <stop offset=".46" stop-color="#ffffff" stop-opacity=".66"/>
      <stop offset="1" stop-color="#72cddd" stop-opacity=".2"/>
    </linearGradient>
    <linearGradient id="deepWater" x1="0" y1="0" x2="1" y2="1">
      <stop offset="0" stop-color="#113a63" stop-opacity=".36"/>
      <stop offset=".5" stop-color="#26568e" stop-opacity=".22"/>
      <stop offset="1" stop-color="#369da2" stop-opacity=".18"/>
    </linearGradient>
    <radialGradient id="bubble" cx="34%" cy="28%" r="72%">
      <stop offset="0" stop-color="#ffffff" stop-opacity=".98"/>
      <stop offset=".4" stop-color="#e4f9ff" stop-opacity=".78"/>
      <stop offset=".74" stop-color="#79cce7" stop-opacity=".34"/>
      <stop offset="1" stop-color="#26568e" stop-opacity=".3"/>
    </radialGradient>
    <filter id="blurSoft" x="-20%" y="-20%" width="140%" height="140%">
      <feGaussianBlur stdDeviation="10"/>
    </filter>
    <filter id="fineWater" x="-10%" y="-10%" width="120%" height="120%">
      <feTurbulence type="fractalNoise" baseFrequency=".014 .08" numOctaves="4" seed="22"/>
      <feColorMatrix type="matrix" values="0 0 0 0 0.14  0 0 0 0 0.52  0 0 0 0 0.64  0 0 0 .3 0"/>
    </filter>
  </defs>
  <rect width="1800" height="1000" fill="url(#base)"/>
  <rect width="1800" height="1000" filter="url(#fineWater)" opacity=".58"/>

  <path d="M-70 50c220-85 410-60 575 5 180 70 336 80 502 4 216-100 446-78 702 34v-153H-70z" fill="#ffffff" opacity=".24"/>
  <path d="M-80 772c244-102 458-54 666 36 242 105 438 82 670-64 215-135 414-154 624-46v302H-80z" fill="#ffffff" opacity=".28"/>
  <path d="M-80 870c242-108 432-18 671 22 272 45 448-82 706-88 240-6 406 82 663 37v159H-80z" fill="#d8f4fb" opacity=".32"/>

  <g opacity=".92">
    <path d="M928-80c-86 120-110 214-70 282 45 77 163 102 156 202-7 94-119 138-150 242-36 124 45 235 152 404h330c-90-154-97-283-20-385 66-87 138-143 102-260-40-130-202-190-170-485z" fill="url(#fallA)"/>
    <path d="M1198-82c-86 106-111 205-75 298 48 123 173 156 161 282-9 92-101 154-122 235-24 94 29 189 120 317h412c-126-174-150-319-71-435 62-91 128-147 100-268-30-132-160-208-122-429z" fill="url(#fallA)" opacity=".88"/>
    <path d="M1468-70c-58 104-61 192-9 266 65 92 166 125 154 236-8 77-72 120-92 190-33 114 44 218 164 388h180V-70z" fill="url(#fallA)" opacity=".72"/>
  </g>

  <g opacity=".7">
    <path d="M982-40c-36 120-19 220 50 300 74 85 67 163-20 235-88 73-89 178-2 314" fill="none" stroke="url(#fallB)" stroke-width="26" stroke-linecap="round"/>
    <path d="M1140-54c-55 144-27 265 82 362 80 71 74 141-16 210-92 71-107 169-44 294" fill="none" stroke="url(#fallB)" stroke-width="18" stroke-linecap="round"/>
    <path d="M1328-50c-70 130-55 244 44 342 94 93 92 176-6 250-96 73-104 171-24 294" fill="none" stroke="url(#fallB)" stroke-width="24" stroke-linecap="round"/>
    <path d="M1538-36c-62 118-47 214 45 288 88 70 91 143 8 220-76 72-74 166 7 282" fill="none" stroke="url(#fallB)" stroke-width="19" stroke-linecap="round"/>
  </g>

  <g filter="url(#blurSoft)" opacity=".82">
    <ellipse cx="1038" cy="80" rx="310" ry="84" fill="#ffffff" opacity=".54" transform="rotate(-8 1038 80)"/>
    <ellipse cx="1332" cy="190" rx="300" ry="104" fill="#8ed8ef" opacity=".3" transform="rotate(13 1332 190)"/>
    <ellipse cx="1464" cy="728" rx="360" ry="126" fill="#72cddd" opacity=".22" transform="rotate(-12 1464 728)"/>
    <ellipse cx="568" cy="178" rx="380" ry="88" fill="#ffffff" opacity=".18" transform="rotate(-6 568 178)"/>
    <ellipse cx="342" cy="840" rx="420" ry="130" fill="#79cce7" opacity=".16" transform="rotate(8 342 840)"/>
  </g>

  <g fill="none" stroke="url(#deepWater)" stroke-linecap="round">
    <path d="M900 0c44 84 44 166 0 245-44 80-42 160 6 240 45 76 47 158 7 248" stroke-width="8" opacity=".44"/>
    <path d="M1058 0c-58 98-54 185 12 260 67 75 66 153-3 234-70 82-72 170-8 264" stroke-width="7" opacity=".34"/>
    <path d="M1260 0c42 101 39 198-9 291-45 87-34 164 33 232 69 70 74 154 15 254" stroke-width="10" opacity=".34"/>
    <path d="M1488 0c-56 110-38 208 54 294 73 68 68 142-17 222-79 74-84 161-14 262" stroke-width="7" opacity=".32"/>
    <path d="M1654 0c-50 118-28 215 68 291 69 55 69 120 0 194-74 79-78 168-12 266" stroke-width="8" opacity=".28"/>
  </g>

  <g fill="url(#bubble)" stroke="#ffffff" stroke-opacity=".24" stroke-width="2.4">
    <circle cx="1018" cy="96" r="20"/>
    <circle cx="1118" cy="130" r="11"/>
    <circle cx="1196" cy="72" r="34"/>
    <circle cx="1310" cy="160" r="44"/>
    <circle cx="1448" cy="224" r="25"/>
    <circle cx="1560" cy="104" r="42"/>
    <circle cx="1660" cy="260" r="22"/>
    <circle cx="980" cy="302" r="14"/>
    <circle cx="1088" cy="354" r="42"/>
    <circle cx="1236" cy="420" r="20"/>
    <circle cx="1370" cy="356" r="58"/>
    <circle cx="1510" cy="472" r="30"/>
    <circle cx="1648" cy="396" r="60"/>
    <circle cx="932" cy="608" r="24"/>
    <circle cx="1062" cy="690" r="16"/>
    <circle cx="1228" cy="646" r="40"/>
    <circle cx="1408" cy="734" r="28"/>
    <circle cx="1580" cy="660" r="48"/>
    <circle cx="1716" cy="808" r="20"/>
  </g>
  <g fill="#ffffff" opacity=".76">
    <circle cx="948" cy="154" r="8"/>
    <circle cx="1044" cy="224" r="7"/>
    <circle cx="1128" cy="254" r="10"/>
    <circle cx="1284" cy="66" r="8"/>
    <circle cx="1386" cy="268" r="9"/>
    <circle cx="1498" cy="170" r="7"/>
    <circle cx="1602" cy="316" r="11"/>
    <circle cx="984" cy="476" r="9"/>
    <circle cx="1142" cy="516" r="8"/>
    <circle cx="1296" cy="548" r="11"/>
    <circle cx="1466" cy="588" r="7"/>
    <circle cx="1670" cy="554" r="9"/>
    <circle cx="1096" cy="812" r="8"/>
    <circle cx="1288" cy="838" r="7"/>
    <circle cx="1510" cy="864" r="10"/>
  </g>
</svg>
